<?xml version="1.0" encoding="UTF-8"?>
<svg version="1.1" xmlns="http://www.w3.org/2000/svg" width="100" height="100">
<path d="M0 0 C0.66 0 1.32 0 2 0 C2.67305018 1.60149886 3.33822227 3.20631029 4 4.8125 C4.37125 5.70582031 4.7425 6.59914063 5.125 7.51953125 C6 10 6 10 6 13 C11.61 13 17.22 13 23 13 C20.23554753 15.76445247 17.84372312 17.98126971 14.75 20.25 C14.04359375 20.77078125 13.3371875 21.2915625 12.609375 21.828125 C12.07828125 22.21484375 11.5471875 22.6015625 11 23 C11.2165625 23.83144531 11.433125 24.66289063 11.65625 25.51953125 C12.07390625 27.14955078 12.07390625 27.14955078 12.5 28.8125 C12.7784375 29.89144531 13.056875 30.97039062 13.34375 32.08203125 C14 35 14 35 14 38 C9.34598674 35.80108548 5.2573854 32.87999601 1 30 C-4.94 34.455 -4.94 34.455 -11 39 C-12.31225809 35.06322574 -11.3393954 33.2205738 -10.0625 29.3125 C-9.68222656 28.13300781 -9.30195312 26.95351563 -8.91015625 25.73828125 C-8.60980469 24.83464844 -8.30945312 23.93101563 -8 23 C-8.78246094 22.44570313 -9.56492187 21.89140625 -10.37109375 21.3203125 C-11.38300781 20.59585938 -12.39492188 19.87140625 -13.4375 19.125 C-14.44683594 18.40570313 -15.45617188 17.68640625 -16.49609375 16.9453125 C-19 15 -19 15 -20 13 C-12.08 12.505 -12.08 12.505 -4 12 C-2.68 8.04 -1.36 4.08 0 0 Z M1 8 C0.01 10.31 -0.98 12.62 -2 15 C-5.3 15.33 -8.6 15.66 -12 16 C-9.31158141 18.25245881 -7.35358125 19.88213958 -4 21 C-4.66 24.3 -5.32 27.6 -6 31 C-5.113125 30.29875 -4.22625 29.5975 -3.3125 28.875 C0 27 0 27 2.625 27.625 C3.40875 28.07875 4.1925 28.5325 5 29 C6.32 29.66 7.64 30.32 9 31 C8.34 28.03 7.68 25.06 7 22 C8.82291667 20.73046875 10.64583333 19.4609375 12.46875 18.19140625 C12.9740625 17.79824219 13.479375 17.40507813 14 17 C14 16.67 14 16.34 14 16 C10.7 16 7.4 16 4 16 C3.87625 15.236875 3.7525 14.47375 3.625 13.6875 C3.11897208 10.79732864 3.11897208 10.79732864 1 8 Z " fill="#F8FCF9" transform="translate(49,34)"/>
<path d="M0 0 C0.33 0 0.66 0 1 0 C0.67 11.22 0.34 22.44 0 34 C-3.3 34 -6.6 34 -10 34 C-10.14518182 29.9170404 -10.23403347 25.83474359 -10.3125 21.75 C-10.35439453 20.59113281 -10.39628906 19.43226562 -10.43945312 18.23828125 C-10.56384369 9.63045418 -10.56384369 9.63045418 -7.65234375 6.375 C-6.77707031 5.92125 -5.90179688 5.4675 -5 5 C-4.0925 4.0925 -3.185 3.185 -2.25 2.25 C-1.5075 1.5075 -0.765 0.765 0 0 Z " fill="#FAFDFB" transform="translate(68,9)"/>
<path d="M0 0 C7.83669549 5.22446366 7.83669549 5.22446366 10 8 C10.45410156 10.74902344 10.45410156 10.74902344 10.390625 13.859375 C10.37773438 14.97441406 10.36484375 16.08945312 10.3515625 17.23828125 C10.31804688 18.39714844 10.28453125 19.55601563 10.25 20.75 C10.23195313 21.92433594 10.21390625 23.09867188 10.1953125 24.30859375 C10.1481912 27.2065534 10.08241305 30.10286418 10 33 C6.7 33 3.4 33 0 33 C0 22.11 0 11.22 0 0 Z " fill="#FEFEFE" transform="translate(32,10)"/>
<path d="M0 0 C2.3125 1.25 2.3125 1.25 3.3125 2.25 C3.41233058 4.23757028 3.44330753 6.2286752 3.4453125 8.21875 C3.44724609 10.03439453 3.44724609 10.03439453 3.44921875 11.88671875 C3.44535156 13.16160156 3.44148438 14.43648437 3.4375 15.75 C3.44136719 17.02488281 3.44523437 18.29976562 3.44921875 19.61328125 C3.44792969 20.82371094 3.44664063 22.03414062 3.4453125 23.28125 C3.44418457 24.40080078 3.44305664 25.52035156 3.44189453 26.67382812 C3.3125 29.25 3.3125 29.25 2.3125 30.25 C-1.71910191 30.51293056 -3.24642734 30.54404844 -6.6875 28.25 C-7.36045326 23.97603524 -7.15032051 19.63309892 -7.125 15.3125 C-7.14498047 14.10658203 -7.16496094 12.90066406 -7.18554688 11.65820312 C-7.18490234 10.50384766 -7.18425781 9.34949219 -7.18359375 8.16015625 C-7.18544678 7.09933838 -7.1872998 6.03852051 -7.18920898 4.94555664 C-6.6875 2.25 -6.6875 2.25 -4.82446289 0.33374023 C-2.6875 -0.75 -2.6875 -0.75 0 0 Z " fill="#F9FCFA" transform="translate(51.6875,68.75)"/>
<path d="M0 0 C9.25048274 -1.16602724 15.27636537 -0.81741979 22.8125 4.875 C25.68863565 7.10747012 28.42247572 9.42247572 31 12 C30.68155994 18.05036112 29.08398334 23.33785658 27 29 C26.67 29 26.34 29 26 29 C26.12375 27.741875 26.2475 26.48375 26.375 25.1875 C25.89066772 20.65756867 23.96658268 18.66275576 20.47753906 15.83666992 C17.36605517 13.48665487 14.1990076 11.2288304 11 9 C8.86874682 7.46681478 6.74770389 5.92004098 4.625 4.375 C3.28308594 3.42753906 3.28308594 3.42753906 1.9140625 2.4609375 C1.28242187 1.97882812 0.65078125 1.49671875 0 1 C0 0.67 0 0.34 0 0 Z " fill="#FCFEFC" transform="translate(6,46)"/>
<path d="M0 0 C1.05960938 0.00676758 1.05960938 0.00676758 2.140625 0.01367188 C3.88545275 0.02546125 5.630237 0.04339676 7.375 0.0625 C4.21002826 3.40458694 0.73278705 6.181476 -2.9375 8.9375 C-6.65976751 11.75640563 -10.31537875 14.58878497 -13.8125 17.6875 C-16.625 20.0625 -16.625 20.0625 -18.625 20.0625 C-18.625 22.7025 -18.625 25.3425 -18.625 28.0625 C-20.46687025 25.29969462 -21.34748277 23.25542174 -22.3125 20.125 C-22.58449219 19.27035156 -22.85648438 18.41570312 -23.13671875 17.53515625 C-23.66711654 14.84922183 -23.52883861 13.61425894 -22.625 11.0625 C-20.51164533 9.19067158 -18.45810394 7.52877677 -16.1875 5.875 C-15.58873047 5.42447266 -14.98996094 4.97394531 -14.37304688 4.50976562 C-9.19000212 0.63844328 -6.36017297 -0.07627514 0 0 Z " fill="#FBFDFC" transform="translate(86.625,45.9375)"/>
<path d="M0 0 C8.91513761 4.80045872 8.91513761 4.80045872 11 8 C11.47702149 11.59766528 11.37534848 15.12935751 11.25 18.75 C11.23195313 19.73355469 11.21390625 20.71710937 11.1953125 21.73046875 C11.14824126 24.15463783 11.08250742 26.57682059 11 29 C9.35425434 29.02688151 7.70838587 29.04634123 6.0625 29.0625 C5.14597656 29.07410156 4.22945312 29.08570312 3.28515625 29.09765625 C1 29 1 29 0 28 C-0.08767112 25.92737924 -0.10695873 23.85179706 -0.09765625 21.77734375 C-0.09443359 20.51728516 -0.09121094 19.25722656 -0.08789062 17.95898438 C-0.07953403 16.61848891 -0.07106907 15.27799412 -0.0625 13.9375 C-0.0574866 12.59310058 -0.05292342 11.2486994 -0.04882812 9.90429688 C-0.03699488 6.60282059 -0.02050971 3.30143197 0 0 Z " fill="#F5FCF7" transform="translate(18,14)"/>
<path d="M0 0 C1 1 1 1 1.11352539 4.05102539 C1.11336634 5.39991271 1.10767612 6.74880614 1.09765625 8.09765625 C1.0962413 8.80651474 1.09482635 9.51537323 1.09336853 10.24571228 C1.08775443 12.51801712 1.07519963 14.79022475 1.0625 17.0625 C1.05748681 18.59960796 1.05292359 20.13671745 1.04882812 21.67382812 C1.03778042 25.44925642 1.02050641 29.22461171 1 33 C-1.5693511 29.14597335 -2.59312655 25.41246673 -4 21 C-5.32 24.96 -6.64 28.92 -8 33 C-8.33 33 -8.66 33 -9 33 C-9 22.44 -9 11.88 -9 1 C-5.78419562 -0.07193479 -3.36629251 -0.14636054 0 0 Z " fill="#F4F8F5" transform="translate(54,4)"/>
<path d="M0 0 C0 9.9 0 19.8 0 30 C-3.3 30 -6.6 30 -10 30 C-11.37752711 11.37787419 -11.37752711 11.37787419 -8.03125 5.6015625 C-2.30279126 0 -2.30279126 0 0 0 Z " fill="#FEFEFE" transform="translate(82,13)"/>
<path d="M0 0 C3.62855214 2.07345837 7.0141508 4.06309915 10 7 C11.28395373 12.18358995 11.1560348 16.84105966 10 22 C7.15250373 25.55685488 4.00446358 27.85744085 0 30 C-0.33 30 -0.66 30 -1 30 C-1.02465746 25.8882744 -1.04283959 21.77657722 -1.05493164 17.66479492 C-1.0599708 16.26504772 -1.06680216 14.8653058 -1.07543945 13.46557617 C-1.0875232 11.45754223 -1.09269807 9.44947043 -1.09765625 7.44140625 C-1.10289307 6.23170166 -1.10812988 5.02199707 -1.11352539 3.77563477 C-1 1 -1 1 0 0 Z " fill="#F4FBF7" transform="translate(19,61)"/>
<path d="M0 0 C0 10.23 0 20.46 0 31 C-2.64 29.02 -5.28 27.04 -8 25 C-8.66 24.67 -9.32 24.34 -10 24 C-11.37725824 9.98937301 -11.37725824 9.98937301 -8.03125 5.15625 C-2.12771739 0 -2.12771739 0 0 0 Z " fill="#FDFEFE" transform="translate(82,60)"/>
<path d="M0 0 C8.18418479 4.06546273 8.18418479 4.06546273 10 7 C10.82832816 12.0127214 10.98723633 16.92644165 11 22 C2.49275396 17.85930502 2.49275396 17.85930502 0 14 C-0.60469853 9.27809318 -0.40853286 4.73379347 0 0 Z " fill="#F8FDFA" transform="translate(58,74)"/>
<path d="M0 0 C1.37698946 12.10390737 1.37698946 12.10390737 -1.96875 16.7109375 C-8.00248195 22 -8.00248195 22 -10 22 C-11.22101937 8.82316592 -11.22101937 8.82316592 -8.2890625 4.4453125 C-3.17971992 0 -3.17971992 0 0 0 Z " fill="#FDFEFD" transform="translate(42,74)"/>
<path d="" fill="#D7F3E2" transform="translate(0,0)"/>
</svg>
