<?xml version="1.0" standalone="no"?>
<!DOCTYPE svg PUBLIC "-//W3C//DTD SVG 20010904//EN"
 "http://www.w3.org/TR/2001/REC-SVG-20010904/DTD/svg10.dtd">
<svg version="1.0" xmlns="http://www.w3.org/2000/svg"
 width="1275.000000pt" height="161.000000pt" viewBox="0 0 1275.000000 161.000000"
 preserveAspectRatio="xMidYMid meet">

<g transform="translate(0.000000,161.000000) scale(0.100000,-0.100000)"
fill="#000000" stroke="none">
<path d="M2070 1440 l0 -170 625 0 625 0 0 170 0 170 -625 0 -625 0 0 -170z"/>
<path d="M3780 1440 l0 -170 630 0 630 0 0 170 0 170 -630 0 -630 0 0 -170z"/>
<path d="M5460 1440 l0 -170 630 0 630 0 0 170 0 170 -630 0 -630 0 0 -170z"/>
<path d="M4 1576 c-3 -7 -3 -83 -2 -169 l3 -157 395 -3 c419 -4 439 -6 543
-56 126 -61 223 -206 242 -363 8 -68 -15 -182 -51 -248 -36 -66 -130 -155
-196 -185 -29 -13 -82 -29 -118 -34 -93 -15 -373 -14 -388 1 -9 9 -12 70 -12
215 l0 203 -210 0 -210 0 0 -389 0 -390 483 5 c269 3 509 10 542 15 163 29
374 195 492 388 28 44 66 125 84 179 31 91 33 105 33 227 0 115 -3 139 -28
210 -41 120 -98 209 -195 305 -128 126 -270 202 -436 234 -105 20 -964 30
-971 12z"/>
<path d="M7182 1481 l3 -110 575 -685 575 -686 168 0 167 0 0 104 0 104 -558
688 -558 689 -187 3 -188 2 3 -109z"/>
<path d="M8270 1442 l0 -148 201 -240 c111 -131 205 -243 210 -248 5 -6 9 154
9 387 l0 397 -210 0 -210 0 0 -148z"/>
<path d="M9220 1417 l0 -172 388 0 c339 0 395 -2 451 -18 91 -25 155 -63 214
-127 188 -203 165 -499 -51 -662 -96 -73 -140 -82 -377 -83 l-200 0 -5 210 -5
210 -207 3 -208 2 0 -389 0 -390 483 5 c265 3 507 10 537 15 180 30 423 238
530 454 99 200 109 431 26 618 -118 269 -414 470 -706 483 -52 2 -269 6 -482
8 l-388 5 0 -172z"/>
<path d="M11308 1583 c-2 -4 -2 -83 0 -174 l4 -166 366 1 c330 1 372 -1 419
-17 123 -43 201 -188 163 -302 -17 -53 -76 -114 -135 -141 -50 -24 -53 -24
-437 -24 l-388 0 0 -380 0 -380 215 0 215 0 0 215 0 215 130 0 129 0 146 -215
146 -215 230 0 c181 0 229 3 223 13 -4 6 -79 119 -166 249 -87 131 -158 240
-158 243 0 2 14 12 32 21 47 24 136 112 174 171 19 28 46 87 61 130 23 68 27
94 27 209 1 129 1 130 -34 200 -50 100 -170 217 -276 272 -146 75 -145 75
-640 80 -243 2 -444 0 -446 -5z"/>
<path d="M2070 820 l0 -170 625 0 625 0 0 170 0 170 -625 0 -625 0 0 -170z"/>
<path d="M5460 820 l0 -170 630 0 630 0 0 170 0 170 -630 0 -630 0 0 -170z"/>
<path d="M3780 450 l0 -450 240 0 240 0 0 280 0 280 390 0 390 0 0 170 0 170
-630 0 -630 0 0 -450z"/>
<path d="M7180 392 l0 -392 210 0 210 0 0 148 -1 147 -190 225 c-104 124 -199
234 -209 245 -20 19 -20 17 -20 -373z"/>
<path d="M2070 170 l0 -170 625 0 625 0 0 170 0 170 -625 0 -625 0 0 -170z"/>
<path d="M5460 170 l0 -170 630 0 630 0 0 170 0 170 -630 0 -630 0 0 -170z"/>
</g>
</svg>
